<svg xmlns="http://www.w3.org/2000/svg" viewBox="0 0 632.85 632.85"><path d="M1153.55,258.64a317.53,317.53,0,1,0,24.86,123.17A315.57,315.57,0,0,0,1153.55,258.64ZM862,697.39c-174,0-315.58-141.57-315.58-315.58S688,66.22,862,66.22s315.59,141.57,315.59,315.59S1036,697.39,862,697.39Z" transform="translate(-545.57 -65.38)" fill="#fff"/><path d="M1146.81,261.48a310.05,310.05,0,1,0,24.3,120.33A308.15,308.15,0,0,0,1146.81,261.48ZM862,690.1c-170,0-308.3-138.3-308.3-308.29S692,73.51,862,73.51s308.3,138.3,308.3,308.3S1032,690.1,862,690.1Z" transform="translate(-545.57 -65.38)" fill="#fff"/><path d="M1140.08,264.33a302.76,302.76,0,1,0,23.72,117.48A300.64,300.64,0,0,0,1140.08,264.33ZM862,682.81c-166,0-301-135-301-301s135-301,301-301,301,135,301,301S1028,682.81,862,682.81Z" transform="translate(-545.57 -65.38)" fill="#fff"/><path d="M1133.34,267.17a295.4,295.4,0,1,0,23.15,114.64A293.38,293.38,0,0,0,1133.34,267.17ZM862,675.52c-162,0-293.72-131.76-293.72-293.71S700,88.09,862,88.09s293.72,131.76,293.72,293.72S1024,675.52,862,675.52Z" transform="translate(-545.57 -65.38)" fill="#fff"/><path d="M1126.61,270a288.11,288.11,0,1,0,22.57,111.79A286.3,286.3,0,0,0,1126.61,270ZM862,668.23c-157.94,0-286.43-128.49-286.43-286.42S704.05,95.38,862,95.38s286.43,128.49,286.43,286.43S1019.93,668.23,862,668.23Z" transform="translate(-545.57 -65.38)" fill="#fff"/><path d="M1119.88,272.86a280.87,280.87,0,1,0,22,109A279.07,279.07,0,0,0,1119.88,272.86ZM862,660.94c-153.92,0-279.14-125.22-279.14-279.13S708.07,102.67,862,102.67s279.14,125.22,279.14,279.14S1015.91,660.94,862,660.94Z" transform="translate(-545.57 -65.38)" fill="#fff"/><path d="M1113.14,275.71a273.46,273.46,0,1,0,21.42,106.1A271.66,271.66,0,0,0,1113.14,275.71ZM862,653.65c-149.9,0-271.85-121.95-271.85-271.84S712.09,110,862,110s271.85,122,271.85,271.85S1011.89,653.65,862,653.65Z" transform="translate(-545.57 -65.38)" fill="#fff"/><path d="M1106.41,278.55a266.22,266.22,0,1,0,20.84,103.26A264.44,264.44,0,0,0,1106.41,278.55ZM862,646.36c-145.88,0-264.56-118.68-264.56-264.55S716.11,117.25,862,117.25s264.56,118.68,264.56,264.56S1007.87,646.36,862,646.36Z" transform="translate(-545.57 -65.38)" fill="#fff"/><path d="M1099.67,281.4a258.81,258.81,0,1,0,20.27,100.41A257,257,0,0,0,1099.67,281.4ZM862,639.08c-141.86,0-257.27-115.42-257.27-257.27S720.13,124.54,862,124.54,1119.26,240,1119.26,381.81,1003.85,639.08,862,639.08Z" transform="translate(-545.57 -65.38)" fill="#fff"/><path d="M1092.94,284.24a251.56,251.56,0,1,0,19.69,97.57A250,250,0,0,0,1092.94,284.24ZM862,631.79c-137.84,0-250-112.14-250-250s112.14-250,250-250,250,112.14,250,250S999.83,631.79,862,631.79Z" transform="translate(-545.57 -65.38)" fill="#fff"/><path d="M1086.2,287.09a244,244,0,1,0,19.13,94.72A242.39,242.39,0,0,0,1086.2,287.09ZM862,624.5c-133.82,0-242.69-108.87-242.69-242.69S728.17,139.12,862,139.12,1104.68,248,1104.68,381.81,995.81,624.5,862,624.5Z" transform="translate(-545.57 -65.38)" fill="#fff"/><path d="M1079.47,289.93A236.8,236.8,0,1,0,1098,381.81,235.46,235.46,0,0,0,1079.47,289.93ZM862,617.21c-129.8,0-235.4-105.6-235.4-235.4S732.19,146.4,862,146.4s235.4,105.61,235.4,235.41S991.79,617.21,862,617.21Z" transform="translate(-545.57 -65.38)" fill="#fff"/><path d="M1072.73,292.78a229.39,229.39,0,1,0,18,89A227.92,227.92,0,0,0,1072.73,292.78ZM862,609.92c-125.78,0-228.11-102.33-228.11-228.11S736.21,153.69,862,153.69,1090.1,256,1090.1,381.81,987.77,609.92,862,609.92Z" transform="translate(-545.57 -65.38)" fill="#fff"/><path d="M1066,295.62a222.14,222.14,0,1,0,17.4,86.19A220.69,220.69,0,0,0,1066,295.62Zm-204,307c-121.76,0-220.82-99.06-220.82-220.82S740.23,161,862,161,1082.81,260,1082.81,381.81,983.75,602.63,862,602.63Z" transform="translate(-545.57 -65.38)" fill="#fff"/><path d="M1059.27,298.47a214.85,214.85,0,1,0,16.82,83.34A213.61,213.61,0,0,0,1059.27,298.47ZM862,595.34c-117.74,0-213.53-95.79-213.53-213.53S744.25,168.27,862,168.27s213.53,95.79,213.53,213.54S979.73,595.34,862,595.34Z" transform="translate(-545.57 -65.38)" fill="#fff"/><path d="M1052.53,301.31a207.49,207.49,0,1,0,16.25,80.5A205.91,205.91,0,0,0,1052.53,301.31ZM862,588.05c-113.72,0-206.24-92.52-206.24-206.24S748.27,175.56,862,175.56s206.24,92.52,206.24,206.25S975.71,588.05,862,588.05Z" transform="translate(-545.57 -65.38)" fill="#fff"/><path d="M1045.8,304.16a200.2,200.2,0,1,0,15.67,77.65A198.81,198.81,0,0,0,1045.8,304.16ZM862,580.76c-109.7,0-199-89.25-199-198.95s89.25-199,199-199,199,89.25,199,199S971.69,580.76,862,580.76Z" transform="translate(-545.57 -65.38)" fill="#fff"/><path d="M1039.06,307a192.84,192.84,0,1,0,15.1,74.81A191.55,191.55,0,0,0,1039.06,307ZM862,573.47c-105.68,0-191.66-86-191.66-191.66s86-191.67,191.66-191.67,191.67,86,191.67,191.67S967.67,573.47,862,573.47Z" transform="translate(-545.57 -65.38)" fill="#fff"/><path d="M1032.33,309.85a185.55,185.55,0,1,0,14.52,72A184,184,0,0,0,1032.33,309.85ZM862,566.18c-101.66,0-184.37-82.71-184.37-184.37S760.33,197.43,862,197.43s184.38,82.71,184.38,184.38S963.66,566.18,862,566.18Z" transform="translate(-545.57 -65.38)" fill="#fff"/><path d="M1025.59,312.69a178.07,178.07,0,1,0,14,69.12A176.94,176.94,0,0,0,1025.59,312.69ZM862,558.89c-97.64,0-177.08-79.44-177.08-177.08S764.35,204.72,862,204.72s177.09,79.44,177.09,177.09S959.64,558.89,862,558.89Z" transform="translate(-545.57 -65.38)" fill="#fff"/><path d="M1018.86,315.54a170.78,170.78,0,1,0,13.38,66.27A169.7,169.7,0,0,0,1018.86,315.54ZM862,551.6c-93.63,0-169.8-76.17-169.8-169.79S768.36,212,862,212s169.8,76.17,169.8,169.8S955.62,551.6,862,551.6Z" transform="translate(-545.57 -65.38)" fill="#fff"/><path d="M977.21,266.59a162.95,162.95,0,1,0,47.72,115.22A161.91,161.91,0,0,0,977.21,266.59ZM862,544.31c-89.61,0-162.51-72.9-162.51-162.5S772.38,219.3,862,219.3s162.51,72.9,162.51,162.51S951.6,544.31,862,544.31Z" transform="translate(-545.57 -65.38)" fill="#fff"/><path d="M972,271.76a155.63,155.63,0,1,0,45.58,110.05A154.6,154.6,0,0,0,972,271.76ZM862,537c-85.59,0-155.22-69.63-155.22-155.21S776.4,226.59,862,226.59s155.22,69.63,155.22,155.22S947.58,537,862,537Z" transform="translate(-545.57 -65.38)" fill="#fff"/><path d="M966.87,276.93a148.32,148.32,0,1,0,43.44,104.88A147.33,147.33,0,0,0,966.87,276.93ZM862,529.73c-81.57,0-147.93-66.36-147.93-147.92S780.42,233.88,862,233.88s147.93,66.36,147.93,147.93S943.56,529.73,862,529.73Z" transform="translate(-545.57 -65.38)" fill="#fff"/><path d="M961.7,282.1a141,141,0,1,0,41.3,99.71A140.06,140.06,0,0,0,961.7,282.1ZM862,522.44c-77.55,0-140.64-63.09-140.64-140.63S784.44,241.17,862,241.17s140.64,63.09,140.64,140.64S939.54,522.44,862,522.44Z" transform="translate(-545.57 -65.38)" fill="#fff"/><path d="M956.53,287.26a133.71,133.71,0,1,0,39.16,94.55A132.84,132.84,0,0,0,956.53,287.26ZM862,515.15c-73.53,0-133.35-59.82-133.35-133.34S788.46,248.46,862,248.46s133.35,59.82,133.35,133.35S935.52,515.15,862,515.15Z" transform="translate(-545.57 -65.38)" fill="#fff"/><path d="M951.36,292.43a126.4,126.4,0,1,0,37,89.38A125.57,125.57,0,0,0,951.36,292.43ZM862,507.87A126.06,126.06,0,1,1,988.05,381.81,126.2,126.2,0,0,1,862,507.87Z" transform="translate(-545.57 -65.38)" fill="#fff"/><path d="M946.2,297.6a119.08,119.08,0,1,0,34.88,84.21A118.34,118.34,0,0,0,946.2,297.6ZM862,500.58A118.77,118.77,0,1,1,980.76,381.81,118.9,118.9,0,0,1,862,500.58Z" transform="translate(-545.57 -65.38)" fill="#fff"/><path d="M941,302.77a111.77,111.77,0,1,0,32.74,79A111,111,0,0,0,941,302.77ZM862,493.29A111.48,111.48,0,1,1,973.47,381.81,111.61,111.61,0,0,1,862,493.29Z" transform="translate(-545.57 -65.38)" fill="#fff"/><path d="M935.86,307.94a104.46,104.46,0,1,0,30.6,73.87A103.74,103.74,0,0,0,935.86,307.94ZM862,486A104.2,104.2,0,1,1,966.18,381.81,104.31,104.31,0,0,1,862,486Z" transform="translate(-545.57 -65.38)" fill="#fff"/><path d="M930.69,313.1a97.16,97.16,0,1,0,28.46,68.71A96.52,96.52,0,0,0,930.69,313.1ZM862,478.71a96.91,96.91,0,1,1,96.9-96.9A97,97,0,0,1,862,478.71Z" transform="translate(-545.57 -65.38)" fill="#fff"/></svg>