<svg xmlns="http://www.w3.org/2000/svg" viewBox="0 0 247.73 320" class="cuttly_signet"><path d="M221,247a171.52,171.52,0,0,1-7.89-31.64,66.42,66.42,0,0,1-23,14.62A67.14,67.14,0,0,1,163,234.18a74.65,74.65,0,0,1-27.34-7.09,90.51,90.51,0,0,1-42.47-42.48,80.42,80.42,0,0,1-7.53-27.78,66.79,66.79,0,0,1,3.64-27.68A64.47,64.47,0,0,1,105,104.67a75.8,75.8,0,0,1,21.8-15.4,111.8,111.8,0,0,1,24.56-8.12A30.49,30.49,0,0,0,159,78.8a17,17,0,0,0,4.59-3q6.91-6.92,3.29-20.25L156.15,14a16.83,16.83,0,0,0-4.33-8.47,17.32,17.32,0,0,0-9.77-5.3A28.69,28.69,0,0,0,130.72,1h1A153.17,153.17,0,0,0,86.86,16.17,164.18,164.18,0,0,0,47,46,158.86,158.86,0,0,0,0,158.57,154,154,0,0,0,5.19,199a163.51,163.51,0,0,0,42.47,73.3,160.58,160.58,0,0,0,34.61,26.46,165.42,165.42,0,0,0,38.58,15.93A152.68,152.68,0,0,0,161.42,320a164.62,164.62,0,0,0,40.49-5.2,155.55,155.55,0,0,0,38.24-15.57c2.58-1.46,5.08-3,7.57-4.65A154.74,154.74,0,0,1,221,247Z" fill="#005ef4"/></svg>