<svg xmlns="http://www.w3.org/2000/svg" width="16px" height="32px" viewBox="0 0 16 32"><path d="M12.7,11.3a6.85,6.85,0,0,0,1.4-4.2A7,7,0,0,0,7.1,0a7.1,7.1,0,0,0,0,14.2,6.64,6.64,0,0,0,4.2-1.4l3,3a1,1,0,0,0,1.4,0,1,1,0,0,0,0-1.4Zm-5.6.8A5,5,0,0,1,2,7.1a5.1,5.1,0,0,1,10.2,0A5,5,0,0,1,7.1,12.1Z" fill="#7e889f"/><path d="M12.7,27.3a6.85,6.85,0,0,0,1.4-4.2,7,7,0,0,0-7-7.1,7.1,7.1,0,0,0,0,14.2,6.64,6.64,0,0,0,4.2-1.4l3,3a1,1,0,0,0,1.4,0,1,1,0,0,0,0-1.4Zm-5.6.8a5,5,0,0,1-5.1-5,5.1,5.1,0,0,1,10.2,0A5,5,0,0,1,7.1,28.1Z" fill="#fff"/></svg>