<?xml version="1.0" encoding="utf-8"?>
<!-- Generator: Adobe Illustrator 16.0.3, SVG Export Plug-In . SVG Version: 6.00 Build 0)  -->
<!DOCTYPE svg PUBLIC "-//W3C//DTD SVG 1.1//EN" "http://www.w3.org/Graphics/SVG/1.1/DTD/svg11.dtd">
<svg version="1.1" id="Layer_1" xmlns="http://www.w3.org/2000/svg" xmlns:xlink="http://www.w3.org/1999/xlink" x="0px" y="0px"
	 width="100px" height="100px" viewBox="0 0 100 100" enable-background="new 0 0 100 100" xml:space="preserve">
<path opacity="0.15" fill="#1076F7" d="M109.777,39.815c19.115,19.15,19.31,50.234-0.024,69.543
	c-19.203,19.181-50.245,19.239-69.514-0.041C20.947,90.014,21.124,58.96,40.263,39.809C59.442,20.617,90.591,20.629,109.777,39.815z
	 M88.634,76.184c-4.284-4.284-8.567-8.556-12.84-12.852c-1.613-1.627-3.564-2.423-5.827-2.292c-3.571,0.2-6.116,2.039-7.637,5.221
	c-1.45,3.041-0.796,6.699,1.655,9.128c8.58,8.484,17.089,17.041,25.609,25.585c4.82,4.82,9.764,1.503,11.731-0.478
	c2.96-2.981,3.483-8.291-0.011-11.667C97.02,84.687,92.854,80.403,88.634,76.184z M61.665,48.399
	c-3.565-3.553-9.24-3.547-12.805,0.019c-3.571,3.571-3.566,9.28,0.012,12.845c3.535,3.524,9.292,3.52,12.828-0.018
	C65.259,57.687,65.241,51.977,61.665,48.399z"/>
</svg>
