<svg xmlns="http://www.w3.org/2000/svg" viewBox="0 0 256 256"><rect x="66.05" y="121.94" width="124.3" height="11.73" rx="2.5" transform="translate(-52.82 128.08) rotate(-45)" fill="#fff"/><path d="M146.13,172.27,85.9,232.5l-.37.34c-18.1,16.06-41.08,8.39-55.92-6.44S7,188.27,23.51,170.08l0,0c.42-.38.86-.78,1.29-1.22l4.69-4.68,16.72-16.72,37.55-37.56a5.86,5.86,0,0,0,0-8.29h0a5.86,5.86,0,0,0-8.29,0L15,162.05a4.11,4.11,0,0,0-.29.31C-26.9,208.54,47.79,283,93.81,241.18l60.61-60.62a5.86,5.86,0,0,0,0-8.29h0A5.86,5.86,0,0,0,146.13,172.27Z" fill="#fff"/><path d="M162.42,14.6,102,75.05a5.86,5.86,0,0,0,0,8.29h0a5.86,5.86,0,0,0,8.29,0l60.45-60.45C184.43,9.17,209.58,12,226.79,29.21c8.6,8.6,13.86,19.39,14.82,30.37.89,10.21-2.13,19.34-8.5,25.71l-60.45,60.45a5.86,5.86,0,0,0,0,8.29h0a5.86,5.86,0,0,0,8.29,0L241.4,93.58c18.32-18.32,15.49-50.85-6.32-72.66S180.74-3.72,162.42,14.6Z" fill="#fff"/></svg>