<?xml version="1.0" encoding="utf-8"?>
<!-- Generator: Adobe Illustrator 16.0.3, SVG Export Plug-In . SVG Version: 6.00 Build 0)  -->
<!DOCTYPE svg PUBLIC "-//W3C//DTD SVG 1.1//EN" "http://www.w3.org/Graphics/SVG/1.1/DTD/svg11.dtd">
<svg version="1.1" id="Layer_1" xmlns="http://www.w3.org/2000/svg" xmlns:xlink="http://www.w3.org/1999/xlink" x="0px" y="0px"
	 width="32px" height="32px" viewBox="0 0 32 32" enable-background="new 0 0 32 32" xml:space="preserve">
<g transform="matrix(.8907 0 0 .8907 3.6618e-5 .04843)">
	<path fill="#1076F7" d="M10.836,14.875c-0.092,0-0.243,0.056-0.311,0.124l-2.981,3.046c-0.133,0.134-0.133,0.3,0,0.434l4.687,4.452
		l3.044,3.044c0.068,0.068,0.157,0.123,0.249,0.123c0.069,0,0.133-0.072,0.186-0.123l3.044-2.982l9.629-9.629
		c0.136-0.133,0.136-0.364,0-0.497l-3.044-3.044c-0.136-0.134-0.302-0.136-0.434,0l-9.381,9.38l-4.438-4.204
		C11.018,14.932,10.928,14.875,10.836,14.875L10.836,14.875L10.836,14.875z"/>
</g>
</svg>
