<svg width="14" height="14" xmlns="http://www.w3.org/2000/svg">
<g>
<rect fill="none" id="canvas_background" height="16" width="16" y="-1" x="-1"/>
</g>
<g>
<path fill="#ffffff" stroke="null" id="svg_1" fill-rule="evenodd" d="m12.545453,1.95941c-0.168312,-0.169461 -0.442321,-0.169461 -0.609484,0l-6.422842,6.392971c-0.168312,0.170609 -0.442895,0.170609 -0.610058,0l-2.814194,-2.865894c-0.083294,-0.085017 -0.192438,-0.126952 -0.302157,-0.127526c-0.110867,-0.000574 -0.223458,0.04136 -0.307901,0.127526l-1.243668,1.117865c-0.08272,0.085017 -0.127526,0.191289 -0.127526,0.302157c0,0.111442 0.044807,0.228054 0.128101,0.312497l2.837746,2.97791c0.167737,0.170035 0.442895,0.445767 0.610058,0.614654l1.220116,1.229881c0.167737,0.168312 0.441746,0.168312 0.610058,0l8.252442,-8.237506c0.168312,-0.168886 0.168312,-0.446342 0,-0.615228l-1.22069,-1.229307z" clip-rule="evenodd"/>
</g>
</svg>