<?xml version="1.0" encoding="utf-8"?>
<!-- Generator: Adobe Illustrator 16.0.3, SVG Export Plug-In . SVG Version: 6.00 Build 0)  -->
<!DOCTYPE svg PUBLIC "-//W3C//DTD SVG 1.1//EN" "http://www.w3.org/Graphics/SVG/1.1/DTD/svg11.dtd">
<svg version="1.1" id="Layer_1" xmlns="http://www.w3.org/2000/svg" xmlns:xlink="http://www.w3.org/1999/xlink" x="0px" y="0px"
	 width="100px" height="100px" viewBox="0 0 100 100" enable-background="new 0 0 100 100" xml:space="preserve">
<path fill="#FFFFFF" d="M31.23,0.421L0.421,31.231v37.541L31.23,99.578h37.539l30.81-30.807V31.231l-30.81-30.81H31.23z"/>
<path fill="#FE223B" d="M33.948,7.599l-26.35,26.35v32.104l26.35,26.35h32.103l26.35-26.35V33.949l-26.35-26.35H33.948z"/>
<g>
	<path fill="#FFFFFF" d="M31.892,44.768h-6.403v-1.964c0-0.917-0.082-1.501-0.245-1.751c-0.164-0.251-0.436-0.377-0.819-0.377
		c-0.415,0-0.731,0.17-0.95,0.507c-0.207,0.339-0.311,0.853-0.311,1.539c0,0.884,0.12,1.551,0.361,1.999
		c0.229,0.448,0.878,0.987,1.948,1.62c3.067,1.824,4.999,3.32,5.797,4.487c0.796,1.167,1.195,3.051,1.195,5.649
		c0,1.889-0.224,3.281-0.671,4.176c-0.437,0.895-1.289,1.646-2.555,2.26c-1.267,0.602-2.74,0.9-4.421,0.9
		c-1.845,0-3.422-0.35-4.732-1.049c-1.299-0.697-2.151-1.588-2.554-2.668c-0.404-1.082-0.605-2.615-0.605-4.602V53.76h6.402v3.225
		c0,0.992,0.086,1.633,0.262,1.916c0.186,0.283,0.507,0.424,0.966,0.424s0.796-0.178,1.016-0.539
		c0.229-0.361,0.343-0.895,0.343-1.605c0-1.561-0.212-2.58-0.638-3.061c-0.437-0.48-1.512-1.283-3.226-2.408
		c-1.713-1.133-2.849-1.958-3.406-2.472c-0.557-0.512-1.021-1.223-1.392-2.128c-0.361-0.905-0.541-2.063-0.541-3.472
		c0-2.03,0.257-3.515,0.77-4.453c0.524-0.938,1.365-1.671,2.522-2.194c1.157-0.535,2.554-0.802,4.192-0.802
		c1.79,0,3.313,0.288,4.568,0.868c1.267,0.578,2.102,1.309,2.506,2.194c0.415,0.873,0.622,2.362,0.622,4.469V44.768z"/>
	<path fill="#FFFFFF" d="M48.526,36.747v5.304h-4.093v21.206H37.54V42.05h-4.078v-5.304H48.526z"/>
	<path fill="#FFFFFF" d="M65.857,52.268c0,2.664-0.065,4.555-0.197,5.666c-0.12,1.102-0.512,2.113-1.179,3.029
		c-0.655,0.918-1.544,1.621-2.668,2.111c-1.125,0.492-2.434,0.738-3.931,0.738c-1.419,0-2.696-0.229-3.831-0.688
		c-1.124-0.471-2.03-1.168-2.718-2.096c-0.688-0.93-1.098-1.938-1.229-3.031c-0.132-1.09-0.197-3-0.197-5.73v-4.535
		c0-2.664,0.06-4.546,0.18-5.649c0.131-1.113,0.524-2.128,1.179-3.045c0.666-0.917,1.561-1.622,2.687-2.112
		c1.124-0.492,2.435-0.737,3.929-0.737c1.42,0,2.69,0.235,3.815,0.705c1.136,0.458,2.047,1.152,2.734,2.079
		c0.688,0.928,1.097,1.938,1.228,3.029c0.132,1.091,0.197,3.002,0.197,5.732V52.268z M58.964,43.557
		c0-1.233-0.071-2.018-0.213-2.357c-0.131-0.349-0.408-0.523-0.835-0.523c-0.36,0-0.639,0.142-0.836,0.425
		c-0.185,0.273-0.277,1.091-0.277,2.456v12.379c0,1.539,0.06,2.488,0.18,2.85c0.131,0.361,0.427,0.539,0.884,0.539
		c0.471,0,0.77-0.207,0.9-0.621c0.132-0.416,0.197-1.402,0.197-2.963V43.557z"/>
	<path fill="#FFFFFF" d="M68.436,36.747h6.942c1.878,0,3.318,0.146,4.323,0.441c1.015,0.295,1.773,0.721,2.275,1.278
		c0.513,0.556,0.857,1.233,1.031,2.031c0.187,0.785,0.279,2.008,0.279,3.667v2.308c0,1.692-0.175,2.925-0.524,3.7
		s-0.993,1.371-1.933,1.787c-0.928,0.412-2.145,0.621-3.651,0.621H75.33v10.676h-6.895V36.747z M75.329,41.282v6.746
		c0.195,0.011,0.365,0.016,0.508,0.016c0.633,0,1.069-0.153,1.311-0.458c0.251-0.318,0.375-0.966,0.375-1.949v-2.178
		c0-0.905-0.141-1.495-0.425-1.768C76.813,41.418,76.225,41.282,75.329,41.282L75.329,41.282z"/>
</g>
</svg>
